
        <svg xmlns="http://www.w3.org/2000/svg" xmlns:xlink="http://www.w3.org/1999/xlink" version="1.1" width="3171.4285714285716" 
        height="2390.892588643757" viewBox="0 0 3171.4285714285716 2390.892588643757">
			
			<g transform="scale(8.571428571428571) translate(10, 10)">
				<defs id="SvgjsDefs1091"></defs><g id="SvgjsG1092" featureKey="AgVF85-0" transform="matrix(0.12132766880830116,0,0,0.12132766880830116,105,0)" fill="#928a97"><g xmlns="http://www.w3.org/2000/svg"><path d="M576.2,175.9C504.7,58.6,431.8,0,288.8,0C128.7,0,0,104.4,0,234.5C0,469,288.8,704.9,576.2,939.4   C461.8,790.7,141.5,607.7,140.1,324.6C138.7,213,245.9,123,377.5,123c118.7,0,178.7,50,238.8,151.6C674.9,173,734.9,123,853.6,123   c131.5,0,238.8,90.1,238.8,201.6c0,75.8-34.3,153-88.6,228.8c91.5-105.8,150.1-213,150.1-318.8C1153.8,104.4,1023.7,0,865,0   C720.6,0,649.1,58.6,576.2,175.9z"></path></g></g><g id="SvgjsG1093" featureKey="vRT5cH-0" transform="matrix(4.722069223843428,0,0,4.722069223843428,-5.760829455635028,113.31743533212291)" fill="#283c63"><path d="M9.12 20.3 c-1.09334 0 -2.12 -0.20666 -3.08 -0.62 s-1.79666 -0.97668 -2.51 -1.69002 s-1.27668 -1.55 -1.69002 -2.51 s-0.62 -1.98666 -0.62 -3.08 c0 -1.08 0.20666 -2.1 0.62 -3.06 s0.97668 -1.79666 1.69002 -2.51 s1.55 -1.27668 2.51 -1.69002 s1.98666 -0.62 3.08 -0.62 c1.08 0 2.1 0.20666 3.06 0.62 s1.79666 0.97668 2.51 1.69002 s1.27668 1.55 1.69002 2.51 s0.62 1.98 0.62 3.06 c0 1.09334 -0.20666 2.12 -0.62 3.08 s-0.97668 1.79666 -1.69002 2.51 s-1.55 1.27668 -2.51 1.69002 s-1.98 0.62 -3.06 0.62 z M9.12 6.28 c-0.84 0 -1.63334 0.16 -2.38 0.48 s-1.4 0.75666 -1.96 1.31 s-1 1.20334 -1.32 1.95 s-0.48 1.54 -0.48 2.38 s0.16 1.63334 0.48 2.38 s0.76 1.4 1.32 1.96 s1.21334 1 1.96 1.32 s1.54 0.48 2.38 0.48 s1.63334 -0.16 2.38 -0.48 s1.39666 -0.76 1.95 -1.32 s0.99 -1.21334 1.31 -1.96 s0.48 -1.54 0.48 -2.38 s-0.16 -1.63334 -0.48 -2.38 s-0.75666 -1.39666 -1.31 -1.95 s-1.20334 -0.99 -1.95 -1.31 s-1.54 -0.48 -2.38 -0.48 z M21.64 10.6 c0.62666 -0.4 1.30002 -0.59998 2.02002 -0.59998 c0.50666 0 0.98666 0.09666 1.44 0.29 s0.85 0.46 1.19 0.8 s0.60666 0.73666 0.8 1.19 s0.29 0.93334 0.29 1.44 l0 5.7 c0 0.24 -0.08666 0.44666 -0.26 0.62 s-0.38 0.26 -0.62 0.26 c-0.25334 0 -0.46668 -0.08666 -0.64002 -0.26 s-0.26 -0.38 -0.26 -0.62 l0 -5.7 c0 -0.26666 -0.05 -0.51666 -0.15 -0.75 s-0.24 -0.44 -0.42 -0.62 s-0.38666 -0.32 -0.62 -0.42 s-0.48334 -0.15 -0.75 -0.15 s-0.52 0.05 -0.76 0.15 s-0.44666 0.24 -0.62 0.42 s-0.31 0.38666 -0.41 0.62 s-0.15 0.48334 -0.15 0.75 c0 0.04 -0.01334 0.1 -0.04 0.18 l0 5.52 c0 0.24 -0.08666 0.44666 -0.26 0.62 s-0.38 0.26 -0.62 0.26 c-0.25334 0 -0.46668 -0.08666 -0.64002 -0.26 s-0.26 -0.38 -0.26 -0.62 l0 -8.66 c0 -0.25334 0.08666 -0.46668 0.26 -0.64002 s0.38668 -0.26 0.64002 -0.26 c0.48 0 0.76 0.24666 0.84 0.74 z M31.14 20.3 c-0.24 0 -0.44666 -0.08666 -0.62 -0.26 s-0.26 -0.38 -0.26 -0.62 l0 -14.02 c0 -0.24 0.08666 -0.44666 0.26 -0.62 s0.38 -0.26 0.62 -0.26 s0.44666 0.08666 0.62 0.26 s0.26 0.38 0.26 0.62 l0 14.02 c0 0.24 -0.08666 0.44666 -0.26 0.62 s-0.38 0.26 -0.62 0.26 z M42.42 11.22 l-3.34002 8.28 l-1.74 4.24 c-0.06666 0.17334 -0.17332 0.31 -0.31998 0.41 s-0.31332 0.15 -0.49998 0.15 c-0.24 0 -0.44666 -0.08666 -0.62 -0.26 s-0.26 -0.38 -0.26 -0.62 c0 -0.12 0.02 -0.23334 0.06 -0.34 l1.6 -3.92 l-3.2 -7.94 c-0.04 -0.09334 -0.06 -0.20668 -0.06 -0.34002 c0 -0.24 0.08666 -0.44666 0.26 -0.62 s0.38 -0.26 0.62 -0.26 c0.18666 0 0.35666 0.05 0.51 0.15 s0.26334 0.23666 0.33 0.41 l2.5 6.4 l2.52 -6.4 c0.06666 -0.17334 0.17332 -0.31 0.31998 -0.41 s0.31332 -0.15 0.49998 -0.15 c0.25334 0 0.46668 0.08666 0.64002 0.26 s0.26 0.38 0.26 0.62 c0 0.13334 -0.02666 0.24668 -0.08 0.34002 z M56.08 5.6 l-5.70006 14.14 c-0.06666 0.17334 -0.17332 0.31 -0.31998 0.41 s-0.31332 0.15 -0.49998 0.15 s-0.35332 -0.05 -0.49998 -0.15 s-0.25332 -0.23666 -0.31998 -0.41 l-5.72 -14.14 c-0.04 -0.09334 -0.06 -0.20668 -0.06 -0.34002 c0 -0.24 0.08666 -0.44666 0.26 -0.62 s0.38 -0.26 0.62 -0.26 c0.18666 0 0.35666 0.05 0.51 0.15 s0.26334 0.23666 0.33 0.41 l4.88 12.1 l4.88 -12.1 c0.06666 -0.17334 0.17332 -0.31 0.31998 -0.41 s0.31332 -0.15 0.49998 -0.15 c0.25334 0 0.46668 0.08666 0.64002 0.26 s0.26 0.38 0.26 0.62 c0 0.13334 -0.02666 0.24668 -0.08 0.34002 z M66.46 15.62 l-7.58004 -0.000059 c0.05334 0.41334 0.17668 0.79668 0.37002 1.15002 s0.44 0.66 0.74 0.92 s0.64 0.46334 1.02 0.61 s0.78334 0.22 1.21 0.22 c0.25334 0 0.48334 -0.02 0.69 -0.06 s0.4 -0.10334 0.58 -0.19 s0.36 -0.19332 0.54 -0.31998 s0.37666 -0.27 0.59 -0.43 c0.08 -0.06666 0.16334 -0.12332 0.25 -0.16998 s0.20332 -0.07 0.34998 -0.07 c0.25334 0 0.46668 0.08666 0.64002 0.26 s0.26 0.38 0.26 0.62 c0 0.14666 -0.02666 0.26666 -0.08 0.36 s-0.11334 0.18 -0.18 0.26 c-0.21334 0.24 -0.46334 0.45666 -0.75 0.65 s-0.59332 0.35334 -0.91998 0.48 s-0.66 0.22332 -1 0.28998 s-0.66334 0.1 -0.97 0.1 c-0.70666 0 -1.37332 -0.13666 -1.99998 -0.41 s-1.17332 -0.64334 -1.63998 -1.11 s-0.83666 -1.01 -1.11 -1.63 s-0.41 -1.28334 -0.41 -1.99 s0.13666 -1.37332 0.41 -1.99998 s0.64334 -1.17332 1.11 -1.63998 s1.01332 -0.83666 1.63998 -1.11 s1.29332 -0.41 1.99998 -0.41 c0.68 0 1.32 0.11334 1.92 0.34 s1.13334 0.55 1.6 0.97 s0.84 0.92 1.12 1.5 s0.44 1.21666 0.48 1.91 c0.01334 0.26666 -0.07 0.48332 -0.25 0.64998 s-0.39 0.25 -0.63 0.25 z M62.21996 11.77994 c-0.69334 0 -1.32 0.19 -1.88 0.57 s-0.97334 0.87666 -1.24 1.49 l6.22 0 c-0.25334 -0.62666 -0.66334 -1.12666 -1.23 -1.5 s-1.19 -0.56 -1.87 -0.56 z M74.44 11.78 l-1.62 0 l0 7.64 c0 0.24 -0.08666 0.44666 -0.26 0.62 s-0.38668 0.26 -0.64002 0.26 c-0.24 0 -0.44666 -0.08666 -0.62 -0.26 s-0.26 -0.38 -0.26 -0.62 l0 -7.64 l-1.64 0 c-0.24 0 -0.44666 -0.08666 -0.62 -0.26 s-0.26 -0.38 -0.26 -0.62 c0 -0.25334 0.08666 -0.46668 0.26 -0.64002 s0.38 -0.26 0.62 -0.26 l1.64 0 l0 -2.94 c0 -0.25334 0.08666 -0.46334 0.26 -0.63 s0.38 -0.25 0.62 -0.25 c0.25334 0 0.46668 0.08334 0.64002 0.25 s0.26 0.37666 0.26 0.63 l0 2.94 l1.62 0 c0.25334 0 0.46668 0.08666 0.64002 0.26 s0.26 0.38668 0.26 0.64002 c0 0.24 -0.08666 0.44666 -0.26 0.62 s-0.38668 0.26 -0.64002 0.26 z"></path></g><g id="SvgjsG1094" featureKey="dDj50M-0" transform="matrix(1.4051992759158394,0,0,1.4051992759158394,33.173241008314534,230.52434363121665)" fill="#928a97"><path d="M1.3 20 l0 -14.24 l5.12 0 c0.9 0 1.76 0.36 2.38 1 c0.64 0.62 1 1.48 1 2.38 c0 0.7 -0.2 1.36 -0.6 1.92 l-0.02 0.02 l0.02 0.02 c0.56 0.22 1.08 0.56 1.5 1 c0.88 0.86 1.36 2.02 1.36 3.26 c0 1.22 -0.48 2.38 -1.36 3.26 c-0.86 0.86 -2.02 1.38 -3.24 1.38 l-6.16 0 z M3.08 18.26 l4.38 0 c1.56 -0.04 2.82 -1.36 2.82 -2.9 c0 -1.56 -1.26 -2.84 -2.82 -2.86 l-4.38 0 l0 5.76 z M3.08 10.76 l3.34 0 c0.88 -0.02 1.6 -0.74 1.6 -1.62 s-0.7 -1.6 -1.6 -1.64 l-3.34 0 l0 3.26 z M20.38 20 l0 -14.24 l9 0 l0 1.72 l-7.2 0 l0 3.34 l6.28 0 l0 1.78 l-6.28 0 l0 5.64 l7.02 0 l0 1.76 l-8.82 0 z M41.84 20 l0 -7.2 l-5.02 -7.04 l2.2 0 l3.74 5.22 l3.74 -5.22 l2.18 0 l-5.02 7.04 l0 7.2 l-1.82 0 z M62.76 5.32 c4.1 0 7.46 3.34 7.46 7.46 c0 4.1 -3.36 7.42 -7.46 7.42 s-7.44 -3.32 -7.44 -7.42 c0 -4.12 3.34 -7.46 7.44 -7.46 z M62.76 18.44 c3.12 0 5.64 -2.56 5.64 -5.66 c0 -3.12 -2.52 -5.7 -5.64 -5.7 s-5.64 2.58 -5.64 5.7 c0 3.1 2.52 5.66 5.64 5.66 z M88.4 20 l-7.62 -11.26 l0 11.26 l-1.8 0 l0 -14.24 l1.96 0 l7.6 11.26 l0 -11.26 l1.8 0 l0 14.24 l-1.94 0 z M99.92 20 l0 -14.24 l4.6 0 c4.04 0 7.32 3.2 7.32 7.12 s-3.28 7.12 -7.32 7.12 l-4.6 0 z M104.52 18.26 c3.06 0 5.54 -2.44 5.54 -5.38 s-2.48 -5.38 -5.54 -5.38 l-2.82 0 l0 10.76 l2.82 0 z M138.22 18.46 c1.78 0 3.44 -0.82 4.54 -2.26 l1.4 1.04 c-1.42 1.9 -3.6 2.98 -5.94 2.98 c-4.12 0 -7.46 -3.34 -7.46 -7.46 c0 -4.1 3.34 -7.44 7.46 -7.44 c2.36 0 4.54 1.1 5.96 3 l-1.42 1.04 c-1.08 -1.46 -2.74 -2.28 -4.54 -2.28 c-3.16 0 -5.7 2.54 -5.7 5.68 c0 3.16 2.54 5.7 5.7 5.7 z M162.7 20 l-1.58 -4.14 l-5.82 0 l-1.58 4.14 l-1.92 0 l5.48 -14.24 l1.86 0 l5.5 14.24 l-1.94 0 z M160.42 14.1 l-2.2 -5.76 l-2.22 5.76 l4.42 0 z M178.58 12.42 l5.5 7.58 l-2.06 0 l-5.44 -7.48 l-2.04 0 l0 7.48 l-1.72 0 l0 -14.24 l4.94 0 c0.9 0 1.74 0.36 2.38 1 s1 1.48 1 2.38 c0 1.58 -1.1 2.9 -2.56 3.28 z M174.54 7.48 l0 3.32 l3.22 0 c0.92 0 1.66 -0.74 1.66 -1.66 s-0.74 -1.66 -1.66 -1.66 l-3.22 0 z M191.56 20 l0 -14.24 l9 0 l0 1.72 l-7.2 0 l0 3.34 l6.28 0 l0 1.78 l-6.28 0 l0 5.64 l7.02 0 l0 1.76 l-8.82 0 z"></path></g>
			</g>
		</svg>
	